<svg width="40" height="40" viewBox="0 0 40 40" fill="none" xmlns="http://www.w3.org/2000/svg">
<rect width="40" height="40" rx="20" fill="#13141A"/>
<path d="M28.8305 19.5513C27.819 18.7295 26.6953 18.5741 25.5173 19.1479C25.0668 19.3675 24.6518 19.6636 24.2078 19.8994C24.0692 19.973 23.8449 20.042 23.736 19.9771C23.3756 19.7623 23.3307 19.2179 23.6011 18.8716C24.5478 17.6596 24.911 16.2659 24.5569 14.7689C23.9667 12.274 22.0523 10.8776 19.5702 11.0084C17.5313 11.116 15.5984 12.9956 15.3635 15.0902C15.2012 16.537 15.5393 17.826 16.448 18.9553C16.5478 19.0794 16.6352 19.3438 16.5752 19.4552C15.925 20.662 15.2532 21.8568 14.5669 23.0423C14.3133 23.4802 13.9012 23.7152 13.4164 23.8161C12.7723 23.9503 12.0301 23.6108 11.6686 23.0093C11.2691 22.3443 11.3225 21.5268 11.8045 20.9278C12.2544 20.369 13.0136 20.1243 13.6302 20.3758C13.8848 20.4797 14.121 20.6327 14.3675 20.7566C14.3647 20.7604 14.5476 20.8816 14.6436 20.9345C14.8728 21.0604 15.0425 21.0466 15.1766 20.7648C15.5075 20.0694 15.7012 19.9503 15.4632 19.7515C15.4105 19.7075 15.3356 19.659 15.2373 19.6C15.2298 19.5961 15.2223 19.5924 15.2148 19.5884C14.7014 19.3216 14.1994 18.9843 13.6579 18.891C11.412 18.5043 9.64765 20.4406 10.0602 22.7526C10.3863 24.5801 12.3975 25.7492 14.1053 25.1421C15.084 24.7942 15.6845 24.0786 16.1458 23.1788C16.3211 22.8366 16.5288 22.5122 16.7364 22.1543C18.2375 23.0523 19.6965 23.875 21.103 24.7839C22.0703 25.4091 22.2676 26.7744 21.6189 27.6711C20.9211 28.6359 19.7185 28.833 18.808 28.132C17.7082 27.2852 17.7401 25.6616 18.8738 24.7771C19.2085 24.5159 19.2069 24.4309 18.8515 24.2099C18.6624 24.0924 18.4573 24 18.2771 23.8702C18.0186 23.6839 17.8282 23.7598 17.6176 23.9643C15.8666 25.6647 16.466 28.8745 18.7028 29.751C20.3802 30.4083 22.1758 29.7302 23.021 28.1203C23.8261 26.587 23.3573 24.667 21.918 23.5959C21.7807 23.4936 21.6506 23.3808 21.4921 23.2527C21.5967 23.1671 21.6484 23.1131 21.7098 23.0763C23.109 22.2376 24.5006 21.3843 25.9161 20.576C26.2358 20.3935 26.6441 20.274 27.0045 20.2906C27.8139 20.3277 28.4884 21.04 28.5771 21.8287C28.6648 22.6083 28.2276 23.4125 27.5693 23.6821C26.7362 24.0235 25.9262 23.7885 25.4246 23.0453C25.2738 22.8217 25.1586 22.5729 25.0214 22.3393C24.8869 22.1101 24.7342 22.0327 24.4793 22.2042C23.5379 22.8377 23.4985 22.5219 24.1247 23.6717C24.1823 23.7773 24.2487 23.8791 24.3209 23.9746C25.1414 25.0592 26.2319 25.5085 27.5205 25.2293C28.7761 24.9573 29.6224 24.1124 29.9047 22.8145C30.1828 21.5367 29.8603 20.3879 28.8305 19.5513ZM21.6618 19.2842C21.9233 19.7048 22.1421 20.1533 22.3942 20.5805C22.52 20.7938 22.5058 20.9199 22.2801 21.0504C21.6007 21.4433 20.9374 21.866 20.2557 22.2545C20.1317 22.3251 19.9147 22.3557 19.8012 22.2912C19.0192 21.8473 18.2533 21.3733 17.4381 20.8824C17.7404 20.3352 18.006 19.8152 18.3094 19.3198C18.5037 19.0023 18.5075 18.8115 18.1701 18.5807C16.9546 17.7493 16.4923 16.2885 16.9108 14.7316C17.2335 13.5317 18.4996 12.5212 19.7763 12.4446C21.1702 12.3609 22.4713 13.1949 23.0119 14.5184C23.6039 15.9677 23.1109 17.6898 21.8194 18.5836C21.5151 18.7942 21.4673 18.9714 21.6618 19.2842Z" fill="#787E95"/>
</svg>
