<svg width="21" height="20" viewBox="0 0 21 20" fill="none" xmlns="http://www.w3.org/2000/svg">
<path id="Vector" d="M10.9076 13.3333H10.0742V10H9.24089M10.0742 6.66667H10.0826M17.5742 10C17.5742 10.013 17.5742 10.026 17.5741 10.039M17.0033 12.8701C16.6264 13.7801 16.074 14.6069 15.3775 15.3033C14.6811 15.9997 13.8543 16.5522 12.9443 16.9291C12.0344 17.306 11.0591 17.5 10.0742 17.5C9.0893 17.5 8.11403 17.306 7.20409 16.9291C6.29415 16.5522 5.46736 15.9997 4.77092 15.3033C4.07448 14.6069 3.52203 13.7801 3.14512 12.8701C2.76821 11.9602 2.57422 10.9849 2.57422 10C2.57422 8.01088 3.36439 6.10322 4.77092 4.6967C6.17744 3.29018 8.0851 2.5 10.0742 2.5C12.0633 2.5 13.971 3.29018 15.3775 4.6967C16.0808 5.39996 16.63 6.22851 17.0033 7.12988" stroke="#787E95" stroke-width="1.6" stroke-linecap="round" stroke-linejoin="round"/>
</svg>
