<svg width="20" height="19" viewBox="0 0 20 19" fill="none" xmlns="http://www.w3.org/2000/svg">
<path d="M18.8305 8.55135C17.819 7.72955 16.6953 7.57406 15.5173 8.14793C15.0668 8.36746 14.6518 8.66356 14.2078 8.89936C14.0692 8.97299 13.8449 9.04202 13.736 8.97715C13.3756 8.76227 13.3307 8.21788 13.6011 7.87156C14.5478 6.65957 14.911 5.26593 14.5569 3.76888C13.9667 1.27402 12.0523 -0.122431 9.57021 0.00844502C7.5313 0.115951 5.59844 1.99562 5.3635 4.09015C5.20118 5.53704 5.53928 6.82595 6.44797 7.95531C6.54785 8.0794 6.63524 8.34378 6.57515 8.45525C5.92497 9.66204 5.25324 10.8568 4.56685 12.0423C4.31332 12.4802 3.90122 12.7152 3.41637 12.8161C2.77231 12.9503 2.03009 12.6108 1.66864 12.0093C1.26905 11.3443 1.32246 10.5268 1.80455 9.92784C2.25438 9.36899 3.01362 9.12432 3.63019 9.37582C3.88479 9.47966 4.12103 9.63269 4.36748 9.75657C4.36474 9.76039 4.54763 9.88163 4.64362 9.93449C4.87278 10.0604 5.04249 10.0466 5.17658 9.76482C5.50754 9.06939 5.70122 8.95026 5.46317 8.7515C5.41049 8.70749 5.33565 8.65896 5.23732 8.59996C5.22981 8.5961 5.2223 8.59236 5.21479 8.58845C4.70143 8.32164 4.19944 7.98428 3.65793 7.89103C1.41199 7.50432 -0.352353 9.44061 0.0601549 11.7526C0.386254 13.5801 2.39751 14.7492 4.10526 14.1421C5.08396 13.7942 5.6845 13.0786 6.14579 12.1788C6.32111 11.8366 6.5288 11.5122 6.73638 11.1543C8.23747 12.0523 9.6965 12.875 11.103 13.7839C12.0703 14.4091 12.2676 15.7744 11.6189 16.6711C10.9211 17.6359 9.71846 17.833 8.80798 17.132C7.70823 16.2852 7.74008 14.6616 8.87379 13.7771C9.20852 13.5159 9.20688 13.4309 8.85146 13.2099C8.66238 13.0924 8.45728 13 8.27712 12.8702C8.01865 12.6839 7.82816 12.7598 7.61756 12.9643C5.86665 14.6647 6.46601 17.8745 8.70278 18.751C10.3802 19.4083 12.1758 18.7302 13.021 17.1203C13.8261 15.587 13.3573 13.667 11.918 12.5959C11.7807 12.4936 11.6506 12.3808 11.4921 12.2527C11.5967 12.1671 11.6484 12.1131 11.7098 12.0763C13.109 11.2376 14.5006 10.3843 15.9161 9.57603C16.2358 9.39354 16.6441 9.27399 17.0045 9.29055C17.8139 9.32771 18.4884 10.04 18.5771 10.8287C18.6648 11.6083 18.2276 12.4125 17.5693 12.6821C16.7362 13.0235 15.9262 12.7885 15.4246 12.0453C15.2738 11.8217 15.1586 11.5729 15.0214 11.3393C14.8869 11.1101 14.7342 11.0327 14.4793 11.2042C13.5379 11.8377 13.4985 11.5219 14.1247 12.6717C14.1823 12.7773 14.2487 12.8791 14.3209 12.9746C15.1414 14.0592 16.2319 14.5085 17.5205 14.2293C18.7761 13.9573 19.6224 13.1124 19.9047 11.8145C20.1828 10.5367 19.8603 9.38793 18.8305 8.55135ZM11.6618 8.28418C11.9233 8.70476 12.1421 9.15335 12.3942 9.58051C12.52 9.79375 12.5058 9.91986 12.2801 10.0504C11.6007 10.4433 10.9374 10.866 10.2557 11.2545C10.1317 11.3251 9.91473 11.3557 9.80124 11.2912C9.01924 10.8473 8.25333 10.3733 7.43812 9.88237C7.74043 9.33522 8.00601 8.81519 8.30935 8.31977C8.50372 8.00232 8.50746 7.81149 8.17014 7.58074C6.95463 6.74932 6.49229 5.28854 6.91084 3.7316C7.23345 2.53168 8.49958 1.52121 9.77626 1.44458C11.1702 1.36095 12.4713 2.1949 13.0119 3.51839C13.6039 4.96766 13.1109 6.68976 11.8194 7.58362C11.5151 7.79419 11.4673 7.97143 11.6618 8.28418Z" fill="#62EA99"/>
</svg>
