<svg width="28" height="28" viewBox="0 0 28 28" fill="none" xmlns="http://www.w3.org/2000/svg">
<path d="M14 0L14.9606 9.48096L19.6943 1.21036L16.7156 10.2623L24.404 4.63217L18.001 11.69L27.3148 9.67376L18.5947 13.5171L27.9233 15.4634L18.3939 15.4277L26.1244 21L17.4333 17.0914L22.229 25.3262L15.8791 18.2206L16.9108 27.6941L14 18.62L11.0892 27.6941L12.1209 18.2206L5.77101 25.3262L10.5667 17.0914L1.87564 21L9.60612 15.4277L0.0766935 15.4634L9.40531 13.5171L0.685208 9.67376L9.99896 11.69L3.59597 4.63217L11.2844 10.2623L8.30569 1.21036L13.0394 9.48096L14 0Z" fill="#C48423"/>
</svg>
