<svg width="20" height="20" viewBox="0 0 20 20" fill="none" xmlns="http://www.w3.org/2000/svg">
<path id="Rectangle 161124056" d="M5 11.5V4.5C5 3.67157 5.67157 3 6.5 3V3C7.32843 3 8 3.67157 8 4.5V9" stroke="#13141A" stroke-width="1.6" stroke-linecap="round" stroke-linejoin="round"/>
<path id="Rectangle 161124060" d="M6.32497 13.7369L5.63494 12.5417C5.22073 11.8243 4.30334 11.5785 3.5859 11.9927V11.9927C2.86846 12.4069 2.62265 13.3243 3.03687 14.0417L4.30759 16.2427C4.66486 16.8615 5.32511 17.2427 6.03964 17.2427L7.00006 17.2427" stroke="#13141A" stroke-width="1.6" stroke-linecap="round" stroke-linejoin="round"/>
<path id="Rectangle 161124057" d="M11 12V9.5C11 8.67157 10.3284 8 9.5 8V8C8.67157 8 8 8.67157 8 9.5V12" stroke="#13141A" stroke-width="1.6" stroke-linecap="round" stroke-linejoin="round"/>
<path id="Rectangle 161124061" d="M14 12V9.5C14 8.67157 13.3284 8 12.5 8V8C11.6716 8 11 8.67157 11 9.5V12" stroke="#13141A" stroke-width="1.6" stroke-linecap="round" stroke-linejoin="round"/>
<path id="Rectangle 161124062" d="M14.0001 12V9.5C14.0001 8.67157 14.6717 8 15.5001 8V8C16.3285 8 17.0001 8.67157 17.0001 9.5V12V15.2304C17.0001 16.335 16.1047 17.2304 15.0001 17.2304H12.6092M9.87038 17.2304H9.82495" stroke="#13141A" stroke-width="1.6" stroke-linecap="round" stroke-linejoin="round"/>
</svg>
