<svg width="20" height="20" viewBox="0 0 20 20" fill="none" xmlns="http://www.w3.org/2000/svg">
<path id="Star 1" d="M16.1287 8.88492C15.7828 9.58802 15.7828 10.4119 16.1287 11.115C16.9226 12.7283 15.8241 14.6308 14.0301 14.75C13.2482 14.8019 12.5347 15.2139 12.0988 15.865C11.0985 17.3591 8.90165 17.3591 7.90142 15.865C7.46549 15.2139 6.75201 14.8019 5.97013 14.75C4.17608 14.6308 3.07763 12.7283 3.87145 11.115C4.21741 10.4119 4.21741 9.58802 3.87145 8.88492C3.07763 7.27163 4.17608 5.36907 5.97013 5.24989C6.75201 5.19795 7.46549 4.78602 7.90142 4.13486C8.90165 2.64076 11.0985 2.64076 12.0988 4.13486C12.4534 4.66457 12.9917 5.03596 13.6011 5.18404M16.0001 6.42459C15.9926 6.41262 15.985 6.40072 15.9773 6.38889L16.0001 6.42459Z" stroke="#13141A" stroke-width="1.6" stroke-linecap="round" stroke-linejoin="round"/>
<path id="Ellipse 338" d="M12 10C12 11.1046 11.1046 12 10 12C8.89543 12 8 11.1046 8 10C8 8.89543 8.89543 8 10 8C11.1046 8 12 8.89543 12 10Z" stroke="#13141A" stroke-width="1.6"/>
</svg>
