<svg width="20" height="20" viewBox="0 0 20 20" fill="none" xmlns="http://www.w3.org/2000/svg">
<g id="Money">
<g id="Ellipse 81">
<circle cx="9.72549" cy="10.2255" r="9.72549" fill="#62EA99"/>
<circle cx="9.72549" cy="10.2255" r="9.72549" fill="url(#paint0_radial_5401_1706)" fill-opacity="0.4"/>
<circle cx="9.72549" cy="10.2255" r="9.72549" fill="url(#paint1_radial_5401_1706)" fill-opacity="0.2"/>
</g>
<circle id="Ellipse 82" cx="9.72564" cy="10.2255" r="7.1526" stroke="url(#paint2_linear_5401_1706)" stroke-width="1.4"/>
<g id="Vector">
<mask id="path-3-inside-1_5401_1706" fill="white">
<path d="M14.0818 9.77078C13.5828 9.37685 13.0284 9.30231 12.4473 9.5774C12.225 9.68263 12.0203 9.82457 11.8013 9.9376C11.7329 9.9729 11.6222 10.006 11.5685 9.97489C11.3907 9.87189 11.3685 9.61093 11.502 9.44492C11.969 8.86395 12.1482 8.19589 11.9734 7.47827C11.6823 6.28234 10.7378 5.61294 9.51335 5.67568C8.50747 5.72721 7.55392 6.62825 7.43801 7.63227C7.35794 8.32585 7.52473 8.9437 7.97303 9.48507C8.0223 9.54455 8.06541 9.67128 8.03577 9.72472C7.71501 10.3032 7.38362 10.8759 7.045 11.4442C6.91992 11.6541 6.71661 11.7667 6.47742 11.8151C6.15968 11.8794 5.79351 11.7167 5.6152 11.4284C5.41807 11.1096 5.44441 10.7177 5.68225 10.4306C5.90416 10.1627 6.27873 10.0454 6.58291 10.166C6.70851 10.2158 6.82505 10.2891 6.94664 10.3485C6.94529 10.3503 7.03552 10.4085 7.08287 10.4338C7.19592 10.4942 7.27965 10.4875 7.3458 10.3525C7.50908 10.0191 7.60463 9.962 7.48719 9.86673C7.46119 9.84563 7.42427 9.82237 7.37577 9.79408C7.37206 9.79224 7.36836 9.79044 7.36465 9.78856C7.11139 9.66067 6.86374 9.49895 6.59659 9.45425C5.48858 9.26888 4.61816 10.1971 4.82167 11.3053C4.98255 12.1814 5.97478 12.7418 6.81727 12.4507C7.3001 12.284 7.59638 11.941 7.82395 11.5096C7.91044 11.3456 8.0129 11.1901 8.11531 11.0185C8.85586 11.449 9.57565 11.8433 10.2695 12.2791C10.7467 12.5787 10.8441 13.2332 10.5241 13.6631C10.1798 14.1255 9.58648 14.22 9.13731 13.884C8.59476 13.4781 8.61047 12.6998 9.16977 12.2758C9.33491 12.1506 9.3341 12.1098 9.15876 12.0039C9.06548 11.9476 8.96429 11.9033 8.87542 11.841C8.7479 11.7518 8.65393 11.7881 8.55003 11.8862C7.68623 12.7013 7.98193 14.2399 9.08541 14.6601C9.91293 14.9751 10.7988 14.6501 11.2158 13.8784C11.6129 13.1434 11.3816 12.223 10.6716 11.7095C10.6039 11.6605 10.5397 11.6065 10.4615 11.545C10.5131 11.504 10.5386 11.4781 10.5689 11.4605C11.2592 11.0584 11.9457 10.6494 12.644 10.262C12.8017 10.1745 13.0032 10.1172 13.181 10.1251C13.5803 10.1429 13.913 10.4844 13.9568 10.8624C14.0001 11.2361 13.7843 11.6216 13.4596 11.7509C13.0486 11.9145 12.649 11.8019 12.4015 11.4456C12.3271 11.3384 12.2703 11.2192 12.2026 11.1072C12.1363 10.9974 12.0609 10.9602 11.9352 11.0424C11.4707 11.3461 11.4513 11.1948 11.7603 11.7459C11.7887 11.7965 11.8214 11.8453 11.857 11.8911C12.2618 12.411 12.7998 12.6264 13.4355 12.4925C14.055 12.3622 14.4725 11.9572 14.6118 11.335C14.7489 10.7225 14.5898 10.1718 14.0818 9.77078ZM10.5452 9.64271C10.6742 9.84432 10.7822 10.0594 10.9065 10.2641C10.9686 10.3663 10.9616 10.4268 10.8502 10.4894C10.515 10.6777 10.1878 10.8803 9.85154 11.0666C9.79034 11.1004 9.68331 11.1151 9.62732 11.0842C9.24153 10.8714 8.86368 10.6442 8.46151 10.4088C8.61064 10.1465 8.74167 9.89726 8.89132 9.65977C8.98721 9.5076 8.98905 9.41613 8.82264 9.30551C8.22298 8.90697 7.99489 8.20673 8.20137 7.4604C8.36053 6.88521 8.98516 6.40083 9.615 6.3641C10.3027 6.32401 10.9446 6.72377 11.2113 7.3582C11.5033 8.05291 11.2601 8.87841 10.623 9.30689C10.4728 9.40783 10.4493 9.49279 10.5452 9.64271Z"/>
</mask>
<path d="M14.0818 9.77078L15.7858 7.61229L15.7858 7.61228L14.0818 9.77078ZM12.4473 9.5774L11.2707 7.09182L11.2706 7.09186L12.4473 9.5774ZM11.8013 9.9376L13.0624 12.3814L13.0625 12.3813L11.8013 9.9376ZM11.5685 9.97489L10.1901 12.3545L10.1909 12.355L11.5685 9.97489ZM11.502 9.44492L9.35865 7.72192L9.35845 7.72217L11.502 9.44492ZM11.9734 7.47827L9.30148 8.1287L9.30149 8.12876L11.9734 7.47827ZM9.51335 5.67568L9.65405 8.42208H9.65406L9.51335 5.67568ZM7.43801 7.63227L10.1699 7.94768L10.1699 7.94764L7.43801 7.63227ZM7.97303 9.48507L5.85495 11.239L5.85525 11.2394L7.97303 9.48507ZM8.03577 9.72472L5.63096 8.39078L5.63074 8.39117L8.03577 9.72472ZM7.045 11.4442L4.68262 10.0365L4.68249 10.0367L7.045 11.4442ZM6.47742 11.8151L5.93203 9.11976L5.93194 9.11978L6.47742 11.8151ZM5.6152 11.4284L7.95405 9.98189L7.95402 9.98185L5.6152 11.4284ZM5.68225 10.4306L7.79997 12.185L7.79999 12.1849L5.68225 10.4306ZM6.58291 10.166L5.56967 12.7225L5.56969 12.7225L6.58291 10.166ZM6.94664 10.3485L9.16268 11.9769L11.1129 9.32287L8.1535 7.87748L6.94664 10.3485ZM7.08287 10.4338L5.78552 12.8585L5.78736 12.8595L7.08287 10.4338ZM7.3458 10.3525L9.81546 11.5621L9.81548 11.5621L7.3458 10.3525ZM7.48719 9.86673L5.75406 12.0019L5.75463 12.0023L7.48719 9.86673ZM7.37577 9.79408L8.76095 7.41843L8.68385 7.37347L8.60399 7.3336L7.37577 9.79408ZM7.36465 9.78856L8.60793 7.33565L8.6043 7.33382L7.36465 9.78856ZM6.59659 9.45425L7.05043 6.74196L7.05037 6.74195L6.59659 9.45425ZM4.82167 11.3053L2.11689 11.802L2.1169 11.802L4.82167 11.3053ZM6.81727 12.4507L5.91956 9.85139L5.91941 9.85144L6.81727 12.4507ZM7.82395 11.5096L10.2562 12.7928L10.2564 12.7925L7.82395 11.5096ZM8.11531 11.0185L9.49732 8.64102L7.14732 7.275L5.75404 9.60894L8.11531 11.0185ZM10.2695 12.2791L11.7321 9.95021L11.732 9.95014L10.2695 12.2791ZM10.5241 13.6631L8.31819 12.0209L8.31816 12.021L10.5241 13.6631ZM9.13731 13.884L10.7847 11.682L10.7847 11.682L9.13731 13.884ZM9.16977 12.2758L10.8311 14.4672L10.8313 14.4671L9.16977 12.2758ZM9.15876 12.0039L10.5809 9.65019L10.5805 9.64992L9.15876 12.0039ZM8.87542 11.841L10.4529 9.58848L10.4527 9.58835L8.87542 11.841ZM8.55003 11.8862L6.66272 9.88605L6.66269 9.88607L8.55003 11.8862ZM9.08541 14.6601L10.0639 12.09L10.0639 12.09L9.08541 14.6601ZM11.2158 13.8784L8.7964 12.571L8.79638 12.5711L11.2158 13.8784ZM10.6716 11.7095L9.05955 13.9375L9.06016 13.9379L10.6716 11.7095ZM10.4615 11.545L8.75062 9.39204L6.02532 11.5577L8.76292 13.7078L10.4615 11.545ZM10.5689 11.4605L9.18485 9.08416L9.18467 9.08427L10.5689 11.4605ZM12.644 10.262L11.3099 7.85725L11.3099 7.85729L12.644 10.262ZM13.181 10.1251L13.0583 12.8724L13.0584 12.8724L13.181 10.1251ZM13.9568 10.8624L11.225 11.1787L11.225 11.1788L13.9568 10.8624ZM13.4596 11.7509L12.4426 9.19588L12.4425 9.1959L13.4596 11.7509ZM12.4015 11.4456L10.1424 13.0136L10.1429 13.0144L12.4015 11.4456ZM12.2026 11.1072L9.84886 12.5293L9.84915 12.5297L12.2026 11.1072ZM11.9352 11.0424L10.4304 8.74065L10.4302 8.74081L11.9352 11.0424ZM11.7603 11.7459L9.36143 13.0905L9.36178 13.0912L11.7603 11.7459ZM11.857 11.8911L9.68718 13.5806L9.68722 13.5806L11.857 11.8911ZM13.4355 12.4925L12.8691 9.8015L12.8689 9.80153L13.4355 12.4925ZM14.6118 11.335L11.9282 10.734L11.9282 10.7342L14.6118 11.335ZM10.5452 9.64271L12.8616 8.16059L12.8616 8.16049L10.5452 9.64271ZM10.9065 10.2641L13.257 8.83667L13.257 8.83655L10.9065 10.2641ZM10.8502 10.4894L12.1971 12.887L12.1979 12.8866L10.8502 10.4894ZM9.85154 11.0666L11.1829 13.4728L11.1836 13.4724L9.85154 11.0666ZM9.62732 11.0842L10.9561 8.67653L10.9556 8.67621L9.62732 11.0842ZM8.46151 10.4088L6.07094 9.04951L4.72841 11.4106L7.07262 12.7823L8.46151 10.4088ZM8.89132 9.65977L6.56473 8.19365L6.56471 8.19369L8.89132 9.65977ZM8.82264 9.30551L10.3449 7.01528L10.3448 7.01521L8.82264 9.30551ZM8.20137 7.4604L5.55097 6.72702L5.55094 6.72711L8.20137 7.4604ZM9.615 6.3641L9.45495 3.61876L9.4549 3.61877L9.615 6.3641ZM11.2113 7.3582L8.67615 8.42387L8.67616 8.4239L11.2113 7.3582ZM10.623 9.30689L12.1574 11.589L12.1576 11.5889L10.623 9.30689ZM15.7858 7.61228C15.2079 7.15615 14.4822 6.79795 13.6294 6.69358C12.7717 6.58859 11.966 6.76269 11.2707 7.09182L13.6239 12.063C13.5097 12.117 13.2717 12.1908 12.9612 12.1528C12.6557 12.1154 12.4567 11.9915 12.3779 11.9293L15.7858 7.61228ZM11.2706 7.09186C11.0349 7.20343 10.8327 7.32287 10.7252 7.38633C10.5864 7.46828 10.5627 7.48218 10.5401 7.49387L13.0625 12.3813C13.2589 12.28 13.447 12.1664 13.5209 12.1228C13.626 12.0607 13.6374 12.0566 13.624 12.0629L11.2706 7.09186ZM10.5401 7.49384C10.6967 7.41302 10.8896 7.33583 11.1273 7.28712C11.2496 7.26206 11.4579 7.22912 11.722 7.23912C11.9678 7.24843 12.4387 7.30117 12.9461 7.59483L10.1909 12.355C11.1509 12.9106 12.0786 12.7065 12.2314 12.6752C12.555 12.6089 12.8374 12.4975 13.0624 12.3814L10.5401 7.49384ZM12.9469 7.5953C13.7395 8.05444 14.0829 8.81603 14.1514 9.42722C14.2182 10.023 14.0581 10.6543 13.6455 11.1677L9.35845 7.72217C8.43403 8.87237 8.21145 11.2083 10.1901 12.3545L12.9469 7.5953ZM13.6453 11.1679C14.5876 9.99571 15.0439 8.46475 14.6454 6.82779L9.30149 8.12876C9.28803 8.07346 9.27974 7.97024 9.30856 7.85354C9.33553 7.74435 9.37565 7.70077 9.35865 7.72192L13.6453 11.1679ZM14.6454 6.82784C14.3617 5.66239 13.7149 4.60996 12.7091 3.87969C11.7101 3.15431 10.5279 2.8701 9.37264 2.92928L9.65406 8.42208C9.72334 8.41853 9.62557 8.43764 9.47768 8.33026C9.41045 8.28145 9.36059 8.22512 9.32881 8.17595C9.29795 8.1282 9.29588 8.10571 9.30148 8.1287L14.6454 6.82784ZM9.37264 2.92928C8.10963 2.99399 7.02357 3.57118 6.25477 4.29652C5.48563 5.02217 4.85021 6.06903 4.70616 7.31691L10.1699 7.94764C10.155 8.0761 10.1183 8.16306 10.0934 8.20958C10.0687 8.2557 10.0454 8.28166 10.0291 8.29706C10.0128 8.31243 9.98422 8.33539 9.93366 8.35873C9.88261 8.3823 9.78888 8.41517 9.65405 8.42208L9.37264 2.92928ZM4.70616 7.31687C4.54548 8.7086 4.89958 10.0853 5.85495 11.239L10.0911 7.73114C10.0901 7.72991 10.1004 7.74227 10.1145 7.76861C10.1288 7.79541 10.1425 7.82822 10.1527 7.86432C10.1749 7.94246 10.166 7.98092 10.1699 7.94768L4.70616 7.31687ZM5.85525 11.2394C5.58467 10.9127 5.45711 10.5957 5.39205 10.3705C5.35404 10.2389 5.30527 10.0283 5.29678 9.76011C5.28968 9.53583 5.2995 8.98834 5.63096 8.39078L10.4406 11.0586C10.7869 10.4344 10.8024 9.851 10.794 9.58608C10.7842 9.27726 10.7272 9.02119 10.6759 8.84384C10.5844 8.52707 10.4106 8.1169 10.0908 7.73078L5.85525 11.2394ZM5.63074 8.39117C5.32613 8.94053 5.00931 9.48823 4.68262 10.0365L9.40737 12.8519C9.75793 12.2636 10.1039 11.6659 10.4408 11.0583L5.63074 8.39117ZM4.68249 10.0367C4.85432 9.74826 5.08896 9.5198 5.34265 9.36066C5.58328 9.20971 5.79885 9.14671 5.93203 9.11976L7.02281 14.5105C7.78691 14.3559 8.77727 13.9095 9.40751 12.8517L4.68249 10.0367ZM5.93194 9.11978C6.40745 9.02355 6.81915 9.11047 7.11701 9.24373C7.41776 9.37827 7.7269 9.61461 7.95405 9.98189L3.27634 12.8748C4.0315 14.0959 5.52484 14.8137 7.0229 14.5105L5.93194 9.11978ZM7.95402 9.98185C8.37332 10.6598 8.32047 11.5567 7.79997 12.185L3.56453 8.67626C2.56836 9.87875 2.46281 11.5594 3.27637 12.8749L7.95402 9.98185ZM7.79999 12.1849C7.55768 12.4774 7.24088 12.6822 6.89067 12.787C6.53971 12.8921 6.06731 12.9198 5.56967 12.7225L7.59614 7.60947C6.02025 6.98489 4.42697 7.63516 3.56451 8.67628L7.79999 12.1849ZM5.56969 12.7225C5.52242 12.7038 5.48908 12.6881 5.4744 12.6809C5.46065 12.6743 5.45676 12.6719 5.47326 12.6807C5.48142 12.6851 5.49071 12.6901 5.50621 12.6984C5.51986 12.7058 5.54022 12.7168 5.56127 12.728C5.60342 12.7505 5.66647 12.7837 5.73978 12.8195L8.1535 7.87748C8.16601 7.88359 8.1689 7.8854 8.15108 7.87589C8.14215 7.87112 8.13256 7.86596 8.11626 7.85717C8.10182 7.84939 8.08115 7.83824 8.05929 7.82659C7.9789 7.78376 7.80759 7.69327 7.59613 7.60946L5.56969 12.7225ZM4.7306 8.72012C3.84202 9.92936 4.30613 11.1601 4.40613 11.4014C4.55519 11.7611 4.74652 12.0012 4.80553 12.0744C4.95184 12.256 5.08948 12.3773 5.11886 12.4035C5.21069 12.4852 5.28865 12.5431 5.3052 12.5554C5.35874 12.5954 5.40366 12.6259 5.41845 12.6359C5.45889 12.6633 5.49706 12.6878 5.52524 12.7057C5.56844 12.733 5.67099 12.7973 5.78552 12.8585L8.38022 8.00906C8.42397 8.03246 8.45193 8.04933 8.4542 8.05069C8.46139 8.055 8.46536 8.05749 8.46774 8.059C8.46936 8.06002 8.47238 8.06195 8.47689 8.06488C8.48069 8.06736 8.48989 8.07337 8.50294 8.08221C8.50873 8.08613 8.54644 8.11156 8.59512 8.1479C8.60924 8.15843 8.68536 8.21482 8.77599 8.29551C8.80478 8.32114 8.94198 8.44206 9.08802 8.62328C9.1469 8.69635 9.33814 8.93628 9.48715 9.29587C9.5871 9.53708 10.0512 10.7677 9.16268 11.9769L4.7306 8.72012ZM5.78736 12.8595C6.02562 12.9868 6.84942 13.4007 7.90851 13.1319C9.07342 12.8362 9.6173 11.9667 9.81546 11.5621L4.87614 9.1428C5.00815 8.87329 5.47709 8.07465 6.55534 7.80095C7.52776 7.55412 8.25317 7.9412 8.37838 8.00807L5.78736 12.8595ZM9.81548 11.5621C9.82259 11.5476 9.82984 11.5338 9.85268 11.493C9.85989 11.4801 9.88835 11.4297 9.91272 11.3846C9.93728 11.3391 9.98913 11.2418 10.0421 11.1204C10.1233 10.9344 10.4131 10.2522 10.2295 9.37355C10.0356 8.44554 9.45275 7.92017 9.21975 7.73114L5.75463 12.0023C5.58034 11.8609 5.02959 11.3784 4.84572 10.4983C4.67215 9.66756 4.94982 9.03835 5.00138 8.92024C5.05578 8.79559 5.12256 8.68306 5.05389 8.80568C5.01657 8.87232 4.95065 8.99068 4.87612 9.14284L9.81548 11.5621ZM9.22031 7.7316C9.01404 7.56416 8.81336 7.44898 8.76095 7.41843L5.99058 12.1697C5.99741 12.1737 5.97841 12.1629 5.94691 12.1425C5.91817 12.1239 5.84513 12.0758 5.75406 12.0019L9.22031 7.7316ZM8.60399 7.3336C8.5982 7.33072 8.59345 7.32836 8.5908 7.32706C8.58946 7.32639 8.5883 7.32582 8.58775 7.32555C8.58697 7.32517 8.58707 7.32522 8.58708 7.32522C8.58721 7.32528 8.58957 7.32645 8.59284 7.32808C8.59623 7.32976 8.60147 7.33238 8.60793 7.33566L6.12137 12.2415C6.12969 12.2457 6.13678 12.2492 6.14202 12.2518C6.14715 12.2544 6.15136 12.2565 6.15334 12.2574C6.15427 12.2579 6.1553 12.2584 6.15544 12.2585C6.15582 12.2587 6.15559 12.2586 6.15517 12.2584C6.15438 12.258 6.15148 12.2565 6.14755 12.2546L8.60399 7.3336ZM8.6043 7.33382C8.57959 7.32134 8.55332 7.30721 8.4767 7.26605C8.41416 7.23245 8.30901 7.17599 8.19259 7.11913C7.9681 7.0095 7.56434 6.82795 7.05043 6.74196L6.14276 12.1665C6.0125 12.1448 5.91466 12.1138 5.85733 12.093C5.8282 12.0825 5.80679 12.0736 5.79438 12.0682C5.78206 12.0628 5.77636 12.06 5.77907 12.0613C5.78192 12.0627 5.79019 12.0668 5.8067 12.0754C5.82383 12.0844 5.84401 12.0951 5.87403 12.1113C5.88615 12.1178 5.9068 12.1289 5.92211 12.1371C5.93955 12.1465 5.95915 12.157 5.97982 12.1679C6.02085 12.1897 6.07045 12.2158 6.125 12.2433L8.6043 7.33382ZM7.05037 6.74195C3.95681 6.22439 1.58845 8.92417 2.11689 11.802L7.52645 10.8086C7.58023 11.1015 7.49835 11.4869 7.20924 11.7906C6.91155 12.1034 6.49028 12.2247 6.14281 12.1666L7.05037 6.74195ZM2.1169 11.802C2.5915 14.3864 5.33219 15.8732 7.71514 15.05L5.91941 9.85144C6.33818 9.70679 6.70096 9.79824 6.92734 9.92749C7.15572 10.0579 7.44045 10.3403 7.52644 10.8086L2.1169 11.802ZM7.71499 15.0501C9.09299 14.5742 9.84114 13.5796 10.2562 12.7928L5.39166 10.2265C5.36347 10.2799 5.38792 10.2174 5.48596 10.1208C5.59992 10.0085 5.75347 9.90875 5.91956 9.85139L7.71499 15.0501ZM10.2564 12.7925C10.3002 12.7094 10.2884 12.7434 10.4766 12.4281L5.75404 9.60894C5.73743 9.63677 5.52068 9.98183 5.39153 10.2267L10.2564 12.7925ZM6.7333 13.396C7.55564 13.8741 8.16475 14.2046 8.80712 14.608L11.732 9.95014C10.9866 9.48207 10.1561 9.02395 9.49732 8.64102L6.7333 13.396ZM8.80702 14.6079C7.86116 14.0139 7.72594 12.8165 8.31819 12.0209L12.7299 15.3052C13.9622 13.65 13.6323 11.1435 11.7321 9.95021L8.80702 14.6079ZM8.31816 12.021C8.55248 11.7062 8.94091 11.4363 9.43746 11.3572C9.93903 11.2773 10.4261 11.4137 10.7847 11.682L7.48992 16.0859C9.21371 17.3756 11.5199 16.9306 12.73 15.3052L8.31816 12.021ZM10.7847 11.682C11.2355 12.0192 11.5013 12.5699 11.4898 13.1422C11.4784 13.7049 11.2055 14.1834 10.8311 14.4672L7.50846 10.0843C5.60624 11.5264 5.37004 14.5 7.48994 16.0859L10.7847 11.682ZM10.8313 14.4671C10.8903 14.4223 11.1091 14.2584 11.3226 14.0169C11.5133 13.8012 12.0806 13.1031 12.04 12.0287C11.9986 10.9353 11.3618 10.2756 11.1339 10.0629C10.8889 9.83431 10.6456 9.68929 10.5809 9.65019L7.73659 14.3576C7.72965 14.3534 7.6935 14.3315 7.64288 14.2962C7.59582 14.2634 7.49727 14.1921 7.38143 14.084C7.19784 13.9127 6.58379 13.2909 6.54391 12.2366C6.50475 11.2012 7.05228 10.5434 7.20212 10.3739C7.30202 10.2609 7.38823 10.1842 7.42881 10.1492C7.47254 10.1115 7.50359 10.088 7.50827 10.0845L10.8313 14.4671ZM10.5805 9.64992C10.5072 9.60564 10.4431 9.57022 10.4013 9.54749C10.3802 9.536 10.3609 9.52567 10.348 9.51878C10.3326 9.51059 10.3265 9.50734 10.3196 9.50358C10.3066 9.4966 10.3176 9.5023 10.3379 9.51425C10.3595 9.52693 10.4007 9.55195 10.4529 9.58848L7.29793 14.0936C7.4819 14.2224 7.64888 14.3122 7.71131 14.3458C7.72837 14.355 7.74637 14.3646 7.75513 14.3693C7.76634 14.3753 7.77111 14.3778 7.77397 14.3794C7.78015 14.3827 7.76371 14.374 7.73703 14.3579L10.5805 9.64992ZM10.4527 9.58835C9.96068 9.24383 9.1572 8.90374 8.17904 9.09391C7.35156 9.25479 6.8334 9.72499 6.66272 9.88605L10.4373 13.8863C10.3706 13.9493 9.95133 14.3523 9.22869 14.4928C8.35537 14.6626 7.66263 14.349 7.29811 14.0937L10.4527 9.58835ZM6.66269 9.88607C4.35323 12.0653 5.06936 16.0736 8.10693 17.2301L10.0639 12.09C10.5308 12.2678 10.7316 12.648 10.7803 12.9008C10.8289 13.1531 10.7826 13.5606 10.4374 13.8863L6.66269 9.88607ZM8.10692 17.2301C10.2046 18.0287 12.5529 17.1885 13.6352 15.1857L8.79638 12.5711C8.90522 12.3696 9.10158 12.1889 9.35725 12.0951C9.61197 12.0016 9.86754 12.0153 10.0639 12.09L8.10692 17.2301ZM13.6351 15.1857C14.7373 13.1461 14.0264 10.7418 12.2831 9.48116L9.06016 13.9379C8.73691 13.7042 8.48861 13.1406 8.7964 12.571L13.6351 15.1857ZM12.2837 9.4816C12.3021 9.49491 12.3085 9.50061 12.2842 9.48124C12.2703 9.47016 12.2609 9.46255 12.2367 9.44319C12.2162 9.42676 12.1897 9.4056 12.1601 9.38232L8.76292 13.7078C8.79424 13.7324 8.79619 13.7344 8.85671 13.7826C8.90097 13.8179 8.97339 13.8752 9.05955 13.9375L12.2837 9.4816ZM12.1724 13.698C12.2096 13.6684 12.24 13.6433 12.2607 13.6259C12.27 13.6181 12.279 13.6106 12.2819 13.6081C12.2866 13.6042 12.2845 13.6059 12.2808 13.609C12.2752 13.6137 12.2392 13.6437 12.1885 13.6815C12.134 13.722 12.0543 13.7777 11.9531 13.8367L9.18467 9.08427C8.96116 9.21447 8.8014 9.34922 8.76555 9.37901C8.75355 9.38898 8.74286 9.39798 8.73846 9.40169C8.73536 9.40431 8.73424 9.40525 8.73262 9.40661C8.732 9.40713 8.73158 9.40749 8.73128 9.40774C8.73113 9.40786 8.73103 9.40795 8.73096 9.40801C8.73089 9.40807 8.73086 9.4081 8.73086 9.4081C8.73132 9.4077 8.73918 9.40113 8.75062 9.39204L12.1724 13.698ZM11.953 13.8368C12.6747 13.4164 13.3133 13.0356 13.9782 12.6667L11.3099 7.85729C10.5781 8.26331 9.8437 8.70042 9.18485 9.08416L11.953 13.8368ZM13.9781 12.6667C13.8535 12.7358 13.7297 12.7844 13.6043 12.8174C13.4829 12.8493 13.2973 12.8831 13.0583 12.8724L13.3036 7.37786C12.5229 7.343 11.821 7.57373 11.3099 7.85725L13.9781 12.6667ZM13.0584 12.8724C12.4998 12.8475 12.0643 12.602 11.7843 12.3295C11.5107 12.0632 11.2823 11.6735 11.225 11.1787L16.6885 10.5462C16.5017 8.93252 15.1545 7.46043 13.3035 7.37786L13.0584 12.8724ZM11.225 11.1788C11.1753 10.7491 11.2748 10.3621 11.4464 10.0554C11.6155 9.75314 11.9302 9.39985 12.4426 9.19588L14.4767 14.3059C16.0748 13.6698 16.8596 12.0228 16.6885 10.5461L11.225 11.1788ZM12.4425 9.1959C12.7304 9.08132 13.1536 9.01397 13.6271 9.14972C14.1076 9.28746 14.4555 9.58217 14.6602 9.87685L10.1429 13.0144C11.1551 14.4717 12.9353 14.9195 14.4767 14.3059L12.4425 9.1959ZM14.6607 9.87758C14.6843 9.91156 14.6994 9.93635 14.705 9.94566C14.7101 9.95412 14.7102 9.95468 14.7003 9.93687C14.6953 9.92792 14.69 9.91837 14.6814 9.90284C14.6737 9.88898 14.6629 9.86957 14.6515 9.84921C14.6288 9.80862 14.5957 9.75021 14.5561 9.68467L9.84915 12.5297C9.84337 12.5202 9.84277 12.5187 9.85207 12.5353C9.85668 12.5435 9.86182 12.5528 9.87003 12.5676C9.87731 12.5808 9.8879 12.5999 9.89888 12.6196C9.93965 12.6925 10.0256 12.8454 10.1424 13.0136L14.6607 9.87758ZM14.5564 9.68514C14.4172 9.45471 13.9214 8.67787 12.8746 8.36675C11.7213 8.02403 10.8083 8.49364 10.4304 8.74065L13.4399 13.3442C13.1878 13.509 12.3753 13.9561 11.3078 13.6389C10.3466 13.3532 9.92172 12.6499 9.84886 12.5293L14.5564 9.68514ZM10.4302 8.74081C10.3741 8.7775 10.4394 8.73417 10.2608 8.84059C10.2153 8.86768 10.019 8.98268 9.8119 9.15897C9.58733 9.3501 9.19014 9.745 8.96369 10.3884C8.7283 11.0572 8.79621 11.6511 8.88787 12.0216C8.96894 12.3493 9.09226 12.5968 9.1372 12.6858C9.20459 12.8193 9.35632 13.0814 9.36143 13.0905L14.1591 10.4013C14.1129 10.3188 14.0681 10.2411 14.0474 10.205C14.0162 10.1504 14.0274 10.1683 14.0467 10.2066C14.0573 10.2275 14.1574 10.4198 14.2269 10.7008C14.307 11.0245 14.375 11.5801 14.1517 12.2144C13.9374 12.8232 13.5645 13.1875 13.3767 13.3473C13.28 13.4296 13.1989 13.4859 13.1562 13.5145C13.1124 13.5438 13.0809 13.5626 13.0762 13.5653C13.0222 13.5975 13.2641 13.4592 13.4402 13.3441L10.4302 8.74081ZM9.36178 13.0912C9.46144 13.2688 9.57171 13.4322 9.68718 13.5806L14.0269 10.2017C14.0711 10.2584 14.1159 10.3242 14.1588 10.4006L9.36178 13.0912ZM9.68722 13.5806C10.6908 14.8695 12.2649 15.5493 14.0021 15.1835L12.8689 9.80153C13.0115 9.77152 13.2645 9.7613 13.5498 9.87141C13.8263 9.9781 13.9767 10.1372 14.0269 10.2016L9.68722 13.5806ZM14.0019 15.1836C15.6607 14.8344 16.9173 13.6241 17.2953 11.9359L11.9282 10.7342C11.9614 10.5859 12.0579 10.3507 12.2785 10.1345C12.4977 9.91963 12.7297 9.83084 12.8691 9.8015L14.0019 15.1836ZM17.2953 11.936C17.6382 10.4046 17.2106 8.73709 15.7858 7.61229L12.3779 11.9293C12.2451 11.8245 12.0707 11.6223 11.974 11.3255C11.8817 11.0422 11.9085 10.8222 11.9282 10.734L17.2953 11.936ZM8.22878 11.1248C8.24634 11.1523 8.27163 11.1951 8.32926 11.2978C8.37575 11.3806 8.46283 11.5381 8.55608 11.6917L13.257 8.83655C13.2258 8.78533 13.1968 8.73293 13.1259 8.60668C13.0662 8.5003 12.9731 8.33476 12.8616 8.16059L8.22878 11.1248ZM8.55601 11.6916C8.52479 11.6402 8.02107 10.869 8.25846 9.79704C8.51223 8.65107 9.3701 8.16672 9.50263 8.09221L12.1979 12.8866C12.4417 12.7495 13.3588 12.2036 13.6284 10.9862C13.8816 9.84275 13.3503 8.9903 13.257 8.83667L8.55601 11.6916ZM9.50336 8.0918C9.3069 8.20217 9.11524 8.31537 8.95716 8.40835C8.78985 8.50675 8.65243 8.5871 8.51943 8.66074L11.1836 13.4724C11.387 13.3598 11.5813 13.2457 11.7455 13.1492C11.9189 13.0472 12.0584 12.9649 12.1971 12.887L9.50336 8.0918ZM8.52019 8.66031C8.87848 8.46208 9.21378 8.38765 9.47087 8.3626C9.6166 8.34841 9.80758 8.34312 10.0305 8.37198C10.2408 8.39922 10.5818 8.46995 10.9561 8.67653L8.2985 13.4918C9.0338 13.8976 9.72999 13.8634 10.0041 13.8367C10.344 13.8036 10.7634 13.7049 11.1829 13.4728L8.52019 8.66031ZM10.9556 8.67621C10.6105 8.48586 10.2905 8.29284 9.8504 8.03532L7.07262 12.7823C7.43688 12.9955 7.87258 13.2569 8.29909 13.4921L10.9556 8.67621ZM10.8521 11.7681C11.0621 11.3988 11.1114 11.295 11.2179 11.1259L6.56471 8.19369C6.37197 8.49955 6.15919 8.89432 6.07094 9.04951L10.8521 11.7681ZM11.2179 11.1259C11.3026 10.9915 11.8426 10.1772 11.6749 9.05929C11.4897 7.82397 10.6204 7.19842 10.3449 7.01528L7.30036 11.5957C7.19124 11.5232 6.40425 10.9987 6.23574 9.87483C6.15674 9.34791 6.25506 8.91615 6.34784 8.65013C6.43401 8.40309 6.53665 8.23822 6.56473 8.19365L11.2179 11.1259ZM10.3448 7.01521C10.5483 7.15048 10.728 7.3723 10.8183 7.64291C10.9045 7.90122 10.8771 8.10211 10.8518 8.1937L5.55094 6.72711C5.07082 8.46248 5.58165 10.4535 7.30046 11.5958L10.3448 7.01521ZM10.8518 8.19379C10.7432 8.58601 10.5332 8.79328 10.4169 8.88344C10.2952 8.97785 10.0886 9.09115 9.7751 9.10944L9.4549 3.61877C7.74082 3.71873 6.04768 4.93194 5.55097 6.72702L10.8518 8.19379ZM9.77505 9.10944C9.3006 9.1371 8.86167 8.86523 8.67615 8.42387L13.7464 6.29252C13.0275 4.58232 11.3048 3.51092 9.45495 3.61876L9.77505 9.10944ZM8.67616 8.4239C8.45742 7.90357 8.63798 7.32777 9.08837 7.02489L12.1576 11.5889C13.8823 10.4291 14.5492 8.20226 13.7464 6.29249L8.67616 8.4239ZM9.0885 7.02481C8.89331 7.15605 8.08543 7.70322 7.81826 8.81254C7.53607 9.98422 8.06375 10.8669 8.22884 11.1249L12.8616 8.16049C12.9307 8.26857 13.4222 9.03385 13.1654 10.1003C12.9235 11.1045 12.2025 11.5587 12.1574 11.589L9.0885 7.02481Z" fill="#259A55" mask="url(#path-3-inside-1_5401_1706)"/>
</g>
</g>
<defs>
<radialGradient id="paint0_radial_5401_1706" cx="0" cy="0" r="1" gradientUnits="userSpaceOnUse" gradientTransform="translate(5.87582 2.52614) rotate(61.6049) scale(6.2861 13.988)">
<stop stop-color="white"/>
<stop offset="1" stop-color="white" stop-opacity="0"/>
</radialGradient>
<radialGradient id="paint1_radial_5401_1706" cx="0" cy="0" r="1" gradientUnits="userSpaceOnUse" gradientTransform="translate(13.5871 18.9498) rotate(-108.997) scale(9.22685)">
<stop stop-color="#1F2029"/>
<stop offset="1" stop-color="#1F2029" stop-opacity="0"/>
</radialGradient>
<linearGradient id="paint2_linear_5401_1706" x1="9.72564" y1="2.37292" x2="9.72564" y2="18.0781" gradientUnits="userSpaceOnUse">
<stop stop-color="#229551"/>
<stop offset="1" stop-color="#53D789"/>
</linearGradient>
</defs>
</svg>
