<svg width="20" height="20" viewBox="0 0 20 20" fill="none" xmlns="http://www.w3.org/2000/svg">
<g id="Money">
<circle id="Ellipse 81" cx="9.72549" cy="10.2255" r="9.72549" fill="url(#paint0_linear_5401_228)"/>
<path id="Ellipse 82 (Stroke)" fill-rule="evenodd" clip-rule="evenodd" d="M9.72552 16.6781C13.2892 16.6781 16.1781 13.7892 16.1781 10.2255C16.1781 6.66185 13.2892 3.77292 9.72552 3.77292C6.16185 3.77292 3.27292 6.66185 3.27292 10.2255C3.27292 13.7892 6.16185 16.6781 9.72552 16.6781ZM9.72552 18.0781C14.0624 18.0781 17.5781 14.5624 17.5781 10.2255C17.5781 5.88865 14.0624 2.37292 9.72552 2.37292C5.38865 2.37292 1.87292 5.88865 1.87292 10.2255C1.87292 14.5624 5.38865 18.0781 9.72552 18.0781Z" fill="url(#paint1_linear_5401_228)"/>
<g id="Vector">
<mask id="path-3-inside-1_5401_228" fill="white">
<path d="M14.082 9.77078C13.5829 9.37685 13.0285 9.30231 12.4474 9.5774C12.2251 9.68263 12.0204 9.82457 11.8014 9.9376C11.733 9.9729 11.6223 10.006 11.5686 9.97489C11.3908 9.87189 11.3687 9.61093 11.5021 9.44492C11.9691 8.86395 12.1483 8.19589 11.9736 7.47827C11.6824 6.28234 10.738 5.61294 9.51347 5.67568C8.50759 5.72721 7.55404 6.62825 7.43814 7.63227C7.35806 8.32585 7.52486 8.9437 7.97315 9.48507C8.02242 9.54455 8.06553 9.67128 8.03589 9.72472C7.71513 10.3032 7.38374 10.8759 7.04512 11.4442C6.92004 11.6541 6.71674 11.7667 6.47754 11.8151C6.1598 11.8794 5.79364 11.7167 5.61532 11.4284C5.41819 11.1096 5.44453 10.7177 5.68237 10.4306C5.90429 10.1627 6.27885 10.0454 6.58303 10.166C6.70863 10.2158 6.82518 10.2891 6.94676 10.3485C6.94541 10.3503 7.03564 10.4085 7.08299 10.4338C7.19605 10.4942 7.27977 10.4875 7.34592 10.3525C7.5092 10.0191 7.60475 9.962 7.48731 9.86673C7.46132 9.84563 7.42439 9.82237 7.37589 9.79408C7.37218 9.79224 7.36848 9.79044 7.36477 9.78856C7.11151 9.66067 6.86386 9.49895 6.59671 9.45425C5.48871 9.26888 4.61829 10.1971 4.82179 11.3053C4.98267 12.1814 5.9749 12.7418 6.8174 12.4507C7.30023 12.284 7.5965 11.941 7.82407 11.5096C7.91056 11.3456 8.01302 11.1901 8.11543 11.0185C8.85598 11.449 9.57577 11.8433 10.2697 12.2791C10.7468 12.5787 10.8442 13.2332 10.5242 13.6631C10.1799 14.1255 9.5866 14.22 9.13743 13.884C8.59488 13.4781 8.61059 12.6998 9.1699 12.2758C9.33503 12.1506 9.33422 12.1098 9.15888 12.0039C9.0656 11.9476 8.96442 11.9033 8.87554 11.841C8.74802 11.7518 8.65405 11.7881 8.55015 11.8862C7.68636 12.7013 7.98205 14.2399 9.08553 14.6601C9.91306 14.9751 10.7989 14.6501 11.2159 13.8784C11.6131 13.1434 11.3818 12.223 10.6717 11.7095C10.604 11.6605 10.5398 11.6065 10.4616 11.545C10.5132 11.504 10.5387 11.4781 10.569 11.4605C11.2593 11.0584 11.9458 10.6494 12.6442 10.262C12.8018 10.1745 13.0033 10.1172 13.1811 10.1251C13.5804 10.1429 13.9131 10.4844 13.9569 10.8624C14.0002 11.2361 13.7845 11.6216 13.4597 11.7509C13.0487 11.9145 12.6491 11.8019 12.4016 11.4456C12.3273 11.3384 12.2704 11.2192 12.2028 11.1072C12.1364 10.9974 12.061 10.9602 11.9353 11.0424C11.4709 11.3461 11.4515 11.1948 11.7604 11.7459C11.7888 11.7965 11.8215 11.8453 11.8572 11.8911C12.262 12.411 12.7999 12.6264 13.4356 12.4925C14.0551 12.3622 14.4726 11.9572 14.6119 11.335C14.7491 10.7225 14.5899 10.1718 14.082 9.77078ZM10.5453 9.64271C10.6743 9.84432 10.7823 10.0594 10.9066 10.2641C10.9687 10.3663 10.9617 10.4268 10.8504 10.4894C10.5152 10.6777 10.188 10.8803 9.85166 11.0666C9.79046 11.1004 9.68343 11.1151 9.62744 11.0842C9.24165 10.8714 8.8638 10.6442 8.46163 10.4088C8.61077 10.1465 8.74179 9.89726 8.89144 9.65977C8.98733 9.5076 8.98917 9.41613 8.82276 9.30551C8.2231 8.90697 7.99501 8.20673 8.2015 7.4604C8.36066 6.88521 8.98528 6.40083 9.61512 6.3641C10.3028 6.32401 10.9447 6.72377 11.2114 7.3582C11.5034 8.05291 11.2602 8.87841 10.6231 9.30689C10.473 9.40783 10.4494 9.49279 10.5453 9.64271Z"/>
</mask>
<path d="M14.082 9.77078L15.7859 7.61229L15.7859 7.61228L14.082 9.77078ZM12.4474 9.5774L11.2708 7.09182L11.2707 7.09186L12.4474 9.5774ZM11.8014 9.9376L13.0626 12.3814L13.0626 12.3813L11.8014 9.9376ZM11.5686 9.97489L10.1902 12.3545L10.191 12.355L11.5686 9.97489ZM11.5021 9.44492L9.35878 7.72192L9.35857 7.72217L11.5021 9.44492ZM11.9736 7.47827L9.3016 8.1287L9.30161 8.12876L11.9736 7.47827ZM9.51347 5.67568L9.65417 8.42208H9.65418L9.51347 5.67568ZM7.43814 7.63227L10.17 7.94768L10.17 7.94764L7.43814 7.63227ZM7.97315 9.48507L5.85507 11.239L5.85537 11.2394L7.97315 9.48507ZM8.03589 9.72472L5.63108 8.39078L5.63087 8.39117L8.03589 9.72472ZM7.04512 11.4442L4.68274 10.0365L4.68261 10.0367L7.04512 11.4442ZM6.47754 11.8151L5.93215 9.11976L5.93206 9.11978L6.47754 11.8151ZM5.61532 11.4284L7.95417 9.98189L7.95414 9.98185L5.61532 11.4284ZM5.68237 10.4306L7.80009 12.185L7.80011 12.1849L5.68237 10.4306ZM6.58303 10.166L5.56979 12.7225L5.56981 12.7225L6.58303 10.166ZM6.94676 10.3485L9.1628 11.9769L11.113 9.32287L8.15362 7.87748L6.94676 10.3485ZM7.08299 10.4338L5.78564 12.8585L5.78749 12.8595L7.08299 10.4338ZM7.34592 10.3525L9.81558 11.5621L9.8156 11.5621L7.34592 10.3525ZM7.48731 9.86673L5.75418 12.0019L5.75475 12.0023L7.48731 9.86673ZM7.37589 9.79408L8.76108 7.41843L8.68397 7.37347L8.60411 7.3336L7.37589 9.79408ZM7.36477 9.78856L8.60805 7.33565L8.60442 7.33382L7.36477 9.78856ZM6.59671 9.45425L7.05055 6.74196L7.05049 6.74195L6.59671 9.45425ZM4.82179 11.3053L2.11701 11.802L2.11702 11.802L4.82179 11.3053ZM6.8174 12.4507L5.91968 9.85139L5.91953 9.85144L6.8174 12.4507ZM7.82407 11.5096L10.2564 12.7928L10.2565 12.7925L7.82407 11.5096ZM8.11543 11.0185L9.49744 8.64102L7.14744 7.275L5.75417 9.60894L8.11543 11.0185ZM10.2697 12.2791L11.7322 9.95021L11.7321 9.95014L10.2697 12.2791ZM10.5242 13.6631L8.31832 12.0209L8.31828 12.021L10.5242 13.6631ZM9.13743 13.884L10.7848 11.682L10.7848 11.682L9.13743 13.884ZM9.1699 12.2758L10.8312 14.4672L10.8314 14.4671L9.1699 12.2758ZM9.15888 12.0039L10.581 9.65019L10.5806 9.64992L9.15888 12.0039ZM8.87554 11.841L10.453 9.58848L10.4528 9.58835L8.87554 11.841ZM8.55015 11.8862L6.66284 9.88605L6.66281 9.88607L8.55015 11.8862ZM9.08553 14.6601L10.064 12.09L10.064 12.09L9.08553 14.6601ZM11.2159 13.8784L8.79652 12.571L8.7965 12.5711L11.2159 13.8784ZM10.6717 11.7095L9.05967 13.9375L9.06028 13.9379L10.6717 11.7095ZM10.4616 11.545L8.75074 9.39204L6.02544 11.5577L8.76304 13.7078L10.4616 11.545ZM10.569 11.4605L9.18498 9.08416L9.18479 9.08427L10.569 11.4605ZM12.6442 10.262L11.3101 7.85725L11.31 7.85729L12.6442 10.262ZM13.1811 10.1251L13.0584 12.8724L13.0586 12.8724L13.1811 10.1251ZM13.9569 10.8624L11.2251 11.1787L11.2252 11.1788L13.9569 10.8624ZM13.4597 11.7509L12.4427 9.19588L12.4427 9.1959L13.4597 11.7509ZM12.4016 11.4456L10.1425 13.0136L10.143 13.0144L12.4016 11.4456ZM12.2028 11.1072L9.84899 12.5293L9.84927 12.5297L12.2028 11.1072ZM11.9353 11.0424L10.4306 8.74065L10.4303 8.74081L11.9353 11.0424ZM11.7604 11.7459L9.36156 13.0905L9.36191 13.0912L11.7604 11.7459ZM11.8572 11.8911L9.6873 13.5806L9.68735 13.5806L11.8572 11.8911ZM13.4356 12.4925L12.8692 9.8015L12.8691 9.80153L13.4356 12.4925ZM14.6119 11.335L11.9284 10.734L11.9283 10.7342L14.6119 11.335ZM10.5453 9.64271L12.8617 8.16059L12.8617 8.16049L10.5453 9.64271ZM10.9066 10.2641L13.2571 8.83667L13.2571 8.83655L10.9066 10.2641ZM10.8504 10.4894L12.1973 12.887L12.198 12.8866L10.8504 10.4894ZM9.85166 11.0666L11.183 13.4728L11.1838 13.4724L9.85166 11.0666ZM9.62744 11.0842L10.9563 8.67653L10.9557 8.67621L9.62744 11.0842ZM8.46163 10.4088L6.07107 9.04951L4.72854 11.4106L7.07274 12.7823L8.46163 10.4088ZM8.89144 9.65977L6.56485 8.19365L6.56483 8.19369L8.89144 9.65977ZM8.82276 9.30551L10.345 7.01528L10.3449 7.01521L8.82276 9.30551ZM8.2015 7.4604L5.55109 6.72702L5.55107 6.72711L8.2015 7.4604ZM9.61512 6.3641L9.45507 3.61876L9.45502 3.61877L9.61512 6.3641ZM11.2114 7.3582L8.67627 8.42387L8.67628 8.4239L11.2114 7.3582ZM10.6231 9.30689L12.1576 11.589L12.1577 11.5889L10.6231 9.30689ZM15.7859 7.61228C15.2081 7.15615 14.4823 6.79795 13.6296 6.69358C12.7718 6.58859 11.9661 6.76269 11.2708 7.09182L13.624 12.063C13.5098 12.117 13.2719 12.1908 12.9614 12.1528C12.6559 12.1154 12.4568 11.9915 12.378 11.9293L15.7859 7.61228ZM11.2707 7.09186C11.035 7.20343 10.8329 7.32287 10.7253 7.38633C10.5865 7.46828 10.5628 7.48218 10.5402 7.49387L13.0626 12.3813C13.259 12.28 13.4471 12.1664 13.521 12.1228C13.6262 12.0607 13.6375 12.0566 13.6241 12.0629L11.2707 7.09186ZM10.5402 7.49384C10.6968 7.41302 10.8898 7.33583 11.1275 7.28712C11.2498 7.26206 11.458 7.22912 11.7221 7.23912C11.9679 7.24843 12.4389 7.30117 12.9462 7.59483L10.191 12.355C11.151 12.9106 12.0787 12.7065 12.2315 12.6752C12.5551 12.6089 12.8376 12.4975 13.0626 12.3814L10.5402 7.49384ZM12.947 7.5953C13.7396 8.05444 14.083 8.81603 14.1515 9.42722C14.2183 10.023 14.0582 10.6543 13.6456 11.1677L9.35857 7.72217C8.43415 8.87237 8.21157 11.2083 10.1902 12.3545L12.947 7.5953ZM13.6454 11.1679C14.5877 9.99571 15.044 8.46475 14.6455 6.82779L9.30161 8.12876C9.28815 8.07346 9.27986 7.97024 9.30868 7.85354C9.33565 7.74435 9.37578 7.70077 9.35878 7.72192L13.6454 11.1679ZM14.6455 6.82784C14.3618 5.66239 13.715 4.60996 12.7093 3.87969C11.7102 3.15431 10.528 2.8701 9.37276 2.92928L9.65418 8.42208C9.72347 8.41853 9.6257 8.43764 9.4778 8.33026C9.41057 8.28145 9.36071 8.22512 9.32893 8.17595C9.29807 8.1282 9.296 8.10571 9.3016 8.1287L14.6455 6.82784ZM9.37276 2.92928C8.10976 2.99399 7.0237 3.57118 6.25489 4.29652C5.48576 5.02217 4.85033 6.06903 4.70628 7.31691L10.17 7.94764C10.1552 8.0761 10.1185 8.16306 10.0935 8.20958C10.0688 8.2557 10.0456 8.28166 10.0292 8.29706C10.0129 8.31243 9.98435 8.33539 9.93378 8.35873C9.88273 8.3823 9.789 8.41517 9.65417 8.42208L9.37276 2.92928ZM4.70628 7.31687C4.5456 8.7086 4.8997 10.0853 5.85507 11.239L10.0912 7.73114C10.0902 7.72991 10.1005 7.74227 10.1146 7.76861C10.1289 7.79541 10.1426 7.82822 10.1528 7.86432C10.175 7.94246 10.1662 7.98092 10.17 7.94768L4.70628 7.31687ZM5.85537 11.2394C5.5848 10.9127 5.45723 10.5957 5.39217 10.3705C5.35416 10.2389 5.30539 10.0283 5.2969 9.76011C5.2898 9.53583 5.29962 8.98834 5.63108 8.39078L10.4407 11.0586C10.787 10.4344 10.8025 9.851 10.7941 9.58608C10.7844 9.27726 10.7273 9.02119 10.6761 8.84384C10.5845 8.52707 10.4108 8.1169 10.0909 7.73078L5.85537 11.2394ZM5.63087 8.39117C5.32625 8.94053 5.00943 9.48823 4.68274 10.0365L9.4075 12.8519C9.75805 12.2636 10.104 11.6659 10.4409 11.0583L5.63087 8.39117ZM4.68261 10.0367C4.85444 9.74826 5.08908 9.5198 5.34277 9.36066C5.5834 9.20971 5.79897 9.14671 5.93215 9.11976L7.02293 14.5105C7.78704 14.3559 8.77739 13.9095 9.40763 12.8517L4.68261 10.0367ZM5.93206 9.11978C6.40757 9.02355 6.81927 9.11047 7.11714 9.24373C7.41788 9.37827 7.72702 9.61461 7.95417 9.98189L3.27646 12.8748C4.03162 14.0959 5.52496 14.8137 7.02303 14.5105L5.93206 9.11978ZM7.95414 9.98185C8.37345 10.6598 8.32059 11.5567 7.80009 12.185L3.56465 8.67626C2.56848 9.87875 2.46293 11.5594 3.27649 12.8749L7.95414 9.98185ZM7.80011 12.1849C7.5578 12.4774 7.241 12.6822 6.89079 12.787C6.53983 12.8921 6.06743 12.9198 5.56979 12.7225L7.59627 7.60947C6.02037 6.98489 4.42709 7.63516 3.56463 8.67628L7.80011 12.1849ZM5.56981 12.7225C5.52254 12.7038 5.4892 12.6881 5.47452 12.6809C5.46077 12.6743 5.45689 12.6719 5.47339 12.6807C5.48154 12.6851 5.49083 12.6901 5.50634 12.6984C5.51998 12.7058 5.54034 12.7168 5.56139 12.728C5.60354 12.7505 5.66659 12.7837 5.7399 12.8195L8.15362 7.87748C8.16613 7.88359 8.16902 7.8854 8.1512 7.87589C8.14227 7.87112 8.13268 7.86596 8.11638 7.85717C8.10194 7.84939 8.08127 7.83824 8.05942 7.82659C7.97902 7.78376 7.80772 7.69327 7.59625 7.60946L5.56981 12.7225ZM4.73072 8.72012C3.84215 9.92936 4.30626 11.1601 4.40625 11.4014C4.55531 11.7611 4.74664 12.0012 4.80565 12.0744C4.95196 12.256 5.0896 12.3773 5.11898 12.4035C5.21081 12.4852 5.28877 12.5431 5.30532 12.5554C5.35886 12.5954 5.40378 12.6259 5.41857 12.6359C5.45901 12.6633 5.49718 12.6878 5.52536 12.7057C5.56856 12.733 5.67111 12.7973 5.78564 12.8585L8.38034 8.00906C8.42409 8.03246 8.45205 8.04933 8.45433 8.05069C8.46152 8.055 8.46548 8.05749 8.46786 8.059C8.46948 8.06002 8.4725 8.06195 8.47701 8.06488C8.48081 8.06736 8.49001 8.07337 8.50306 8.08221C8.50885 8.08613 8.54657 8.11156 8.59525 8.1479C8.60936 8.15843 8.68548 8.21482 8.77611 8.29551C8.8049 8.32114 8.9421 8.44206 9.08814 8.62328C9.14702 8.69635 9.33826 8.93628 9.48727 9.29587C9.58722 9.53708 10.0513 10.7677 9.1628 11.9769L4.73072 8.72012ZM5.78749 12.8595C6.02574 12.9868 6.84955 13.4007 7.90863 13.1319C9.07355 12.8362 9.61742 11.9667 9.81558 11.5621L4.87626 9.1428C5.00827 8.87329 5.47721 8.07465 6.55546 7.80095C7.52788 7.55412 8.25329 7.9412 8.3785 8.00807L5.78749 12.8595ZM9.8156 11.5621C9.82271 11.5476 9.82996 11.5338 9.85281 11.493C9.86001 11.4801 9.88847 11.4297 9.91284 11.3846C9.93741 11.3391 9.98926 11.2418 10.0423 11.1204C10.1234 10.9344 10.4132 10.2522 10.2296 9.37355C10.0357 8.44554 9.45287 7.92017 9.21987 7.73114L5.75475 12.0023C5.58046 11.8609 5.02971 11.3784 4.84584 10.4983C4.67228 9.66756 4.94995 9.03835 5.0015 8.92024C5.0559 8.79559 5.12268 8.68306 5.05401 8.80568C5.01669 8.87232 4.95077 8.99068 4.87624 9.14284L9.8156 11.5621ZM9.22043 7.7316C9.01416 7.56416 8.81348 7.44898 8.76108 7.41843L5.9907 12.1697C5.99753 12.1737 5.97854 12.1629 5.94703 12.1425C5.91829 12.1239 5.84525 12.0758 5.75418 12.0019L9.22043 7.7316ZM8.60411 7.3336C8.59833 7.33072 8.59357 7.32836 8.59092 7.32706C8.58958 7.32639 8.58843 7.32582 8.58788 7.32555C8.58709 7.32517 8.5872 7.32522 8.5872 7.32522C8.58733 7.32528 8.58969 7.32645 8.59296 7.32808C8.59635 7.32976 8.60159 7.33238 8.60805 7.33566L6.1215 12.2415C6.12981 12.2457 6.1369 12.2492 6.14214 12.2518C6.14727 12.2544 6.15148 12.2565 6.15346 12.2574C6.15439 12.2579 6.15542 12.2584 6.15556 12.2585C6.15594 12.2587 6.15571 12.2586 6.15529 12.2584C6.1545 12.258 6.1516 12.2565 6.14767 12.2546L8.60411 7.3336ZM8.60442 7.33382C8.57971 7.32134 8.55344 7.30721 8.47682 7.26605C8.41428 7.23245 8.30913 7.17599 8.19271 7.11913C7.96823 7.0095 7.56446 6.82795 7.05055 6.74196L6.14288 12.1665C6.01262 12.1448 5.91478 12.1138 5.85745 12.093C5.82832 12.0825 5.80691 12.0736 5.79451 12.0682C5.78218 12.0628 5.77648 12.06 5.77919 12.0613C5.78204 12.0627 5.79031 12.0668 5.80682 12.0754C5.82396 12.0844 5.84413 12.0951 5.87415 12.1113C5.88627 12.1178 5.90692 12.1289 5.92223 12.1371C5.93967 12.1465 5.95927 12.157 5.97994 12.1679C6.02097 12.1897 6.07058 12.2158 6.12512 12.2433L8.60442 7.33382ZM7.05049 6.74195C3.95694 6.22439 1.58857 8.92417 2.11701 11.802L7.52657 10.8086C7.58035 11.1015 7.49847 11.4869 7.20937 11.7906C6.91167 12.1034 6.4904 12.2247 6.14294 12.1666L7.05049 6.74195ZM2.11702 11.802C2.59162 14.3864 5.33231 15.8732 7.71526 15.05L5.91953 9.85144C6.3383 9.70679 6.70108 9.79824 6.92746 9.92749C7.15584 10.0579 7.44057 10.3403 7.52656 10.8086L2.11702 11.802ZM7.71511 15.0501C9.09312 14.5742 9.84126 13.5796 10.2564 12.7928L5.39178 10.2265C5.3636 10.2799 5.38804 10.2174 5.48609 10.1208C5.60004 10.0085 5.75359 9.90875 5.91968 9.85139L7.71511 15.0501ZM10.2565 12.7925C10.3003 12.7094 10.2885 12.7434 10.4767 12.4281L5.75417 9.60894C5.73755 9.63677 5.5208 9.98183 5.39166 10.2267L10.2565 12.7925ZM6.73342 13.396C7.55576 13.8741 8.16487 14.2046 8.80724 14.608L11.7321 9.95014C10.9867 9.48207 10.1562 9.02395 9.49744 8.64102L6.73342 13.396ZM8.80714 14.6079C7.86128 14.0139 7.72606 12.8165 8.31832 12.0209L12.7301 15.3052C13.9623 13.65 13.6324 11.1435 11.7322 9.95021L8.80714 14.6079ZM8.31828 12.021C8.5526 11.7062 8.94103 11.4363 9.43758 11.3572C9.93915 11.2773 10.4262 11.4137 10.7848 11.682L7.49004 16.0859C9.21383 17.3756 11.5201 16.9306 12.7301 15.3052L8.31828 12.021ZM10.7848 11.682C11.2356 12.0192 11.5015 12.5699 11.4899 13.1422C11.4785 13.7049 11.2056 14.1834 10.8312 14.4672L7.50858 10.0843C5.60636 11.5264 5.37017 14.5 7.49006 16.0859L10.7848 11.682ZM10.8314 14.4671C10.8904 14.4223 11.1092 14.2584 11.3228 14.0169C11.5134 13.8012 12.0807 13.1031 12.0401 12.0287C11.9987 10.9353 11.3619 10.2756 11.134 10.0629C10.889 9.83431 10.6458 9.68929 10.581 9.65019L7.73672 14.3576C7.72978 14.3534 7.69362 14.3315 7.643 14.2962C7.59594 14.2634 7.49739 14.1921 7.38155 14.084C7.19796 13.9127 6.58391 13.2909 6.54403 12.2366C6.50487 11.2012 7.0524 10.5434 7.20225 10.3739C7.30214 10.2609 7.38835 10.1842 7.42893 10.1492C7.47266 10.1115 7.50371 10.088 7.5084 10.0845L10.8314 14.4671ZM10.5806 9.64992C10.5073 9.60564 10.4432 9.57022 10.4014 9.54749C10.3803 9.536 10.361 9.52567 10.3481 9.51878C10.3328 9.51059 10.3267 9.50734 10.3197 9.50358C10.3067 9.4966 10.3177 9.5023 10.3381 9.51425C10.3596 9.52693 10.4009 9.55195 10.453 9.58848L7.29806 14.0936C7.48203 14.2224 7.649 14.3122 7.71143 14.3458C7.72849 14.355 7.74649 14.3646 7.75525 14.3693C7.76646 14.3753 7.77123 14.3778 7.77409 14.3794C7.78027 14.3827 7.76383 14.374 7.73715 14.3579L10.5806 9.64992ZM10.4528 9.58835C9.96081 9.24383 9.15732 8.90374 8.17916 9.09391C7.35168 9.25479 6.83352 9.72499 6.66284 9.88605L10.4375 13.8863C10.3707 13.9493 9.95146 14.3523 9.22882 14.4928C8.3555 14.6626 7.66275 14.349 7.29823 14.0937L10.4528 9.58835ZM6.66281 9.88607C4.35335 12.0653 5.06949 16.0736 8.10705 17.2301L10.064 12.09C10.5309 12.2678 10.7317 12.648 10.7804 12.9008C10.829 13.1531 10.7827 13.5606 10.4375 13.8863L6.66281 9.88607ZM8.10704 17.2301C10.2047 18.0287 12.553 17.1885 13.6353 15.1857L8.7965 12.5711C8.90535 12.3696 9.10171 12.1889 9.35737 12.0951C9.61209 12.0016 9.86767 12.0153 10.064 12.09L8.10704 17.2301ZM13.6353 15.1857C14.7374 13.1461 14.0265 10.7418 12.2832 9.48116L9.06028 13.9379C8.73703 13.7042 8.48873 13.1406 8.79652 12.571L13.6353 15.1857ZM12.2838 9.4816C12.3022 9.49491 12.3087 9.50061 12.2844 9.48124C12.2704 9.47016 12.261 9.46255 12.2368 9.44319C12.2163 9.42676 12.1898 9.4056 12.1602 9.38232L8.76304 13.7078C8.79436 13.7324 8.79631 13.7344 8.85683 13.7826C8.9011 13.8179 8.97352 13.8752 9.05967 13.9375L12.2838 9.4816ZM12.1725 13.698C12.2097 13.6684 12.2401 13.6433 12.2608 13.6259C12.2702 13.6181 12.2791 13.6106 12.282 13.6081C12.2867 13.6042 12.2846 13.6059 12.2809 13.609C12.2753 13.6137 12.2393 13.6437 12.1886 13.6815C12.1341 13.722 12.0545 13.7777 11.9533 13.8367L9.18479 9.08427C8.96128 9.21447 8.80152 9.34922 8.76567 9.37901C8.75367 9.38898 8.74299 9.39798 8.73858 9.40169C8.73548 9.40431 8.73437 9.40525 8.73275 9.40661C8.73213 9.40713 8.7317 9.40749 8.7314 9.40774C8.73126 9.40786 8.73115 9.40795 8.73108 9.40801C8.73101 9.40807 8.73098 9.4081 8.73098 9.4081C8.73145 9.4077 8.7393 9.40113 8.75074 9.39204L12.1725 13.698ZM11.9531 13.8368C12.6748 13.4164 13.3134 13.0356 13.9783 12.6667L11.31 7.85729C10.5782 8.26331 9.84383 8.70042 9.18498 9.08416L11.9531 13.8368ZM13.9783 12.6667C13.8536 12.7358 13.7298 12.7844 13.6044 12.8174C13.483 12.8493 13.2974 12.8831 13.0584 12.8724L13.3038 7.37786C12.5231 7.343 11.8211 7.57373 11.3101 7.85725L13.9783 12.6667ZM13.0586 12.8724C12.5 12.8475 12.0644 12.602 11.7844 12.3295C11.5108 12.0632 11.2824 11.6735 11.2251 11.1787L16.6887 10.5462C16.5019 8.93252 15.1546 7.46043 13.3037 7.37786L13.0586 12.8724ZM11.2252 11.1788C11.1754 10.7491 11.2749 10.3621 11.4465 10.0554C11.6157 9.75314 11.9303 9.39985 12.4427 9.19588L14.4768 14.3059C16.0749 13.6698 16.8597 12.0228 16.6886 10.5461L11.2252 11.1788ZM12.4427 9.1959C12.7305 9.08132 13.1537 9.01397 13.6272 9.14972C14.1077 9.28746 14.4556 9.58217 14.6603 9.87685L10.143 13.0144C11.1552 14.4717 12.9354 14.9195 14.4768 14.3059L12.4427 9.1959ZM14.6608 9.87758C14.6844 9.91156 14.6996 9.93635 14.7052 9.94566C14.7102 9.95412 14.7103 9.95468 14.7004 9.93687C14.6954 9.92792 14.6901 9.91837 14.6815 9.90284C14.6738 9.88898 14.6631 9.86957 14.6517 9.84921C14.6289 9.80862 14.5959 9.75021 14.5562 9.68467L9.84927 12.5297C9.8435 12.5202 9.84289 12.5187 9.85219 12.5353C9.8568 12.5435 9.86195 12.5528 9.87015 12.5676C9.87744 12.5808 9.88802 12.5999 9.899 12.6196C9.93978 12.6925 10.0257 12.8454 10.1425 13.0136L14.6608 9.87758ZM14.5565 9.68514C14.4173 9.45471 13.9216 8.67787 12.8747 8.36675C11.7215 8.02403 10.8084 8.49364 10.4306 8.74065L13.44 13.3442C13.1879 13.509 12.3754 13.9561 11.3079 13.6389C10.3467 13.3532 9.92184 12.6499 9.84899 12.5293L14.5565 9.68514ZM10.4303 8.74081C10.3742 8.7775 10.4395 8.73417 10.2609 8.84059C10.2154 8.86768 10.0191 8.98268 9.81202 9.15897C9.58745 9.3501 9.19026 9.745 8.96381 10.3884C8.72842 11.0572 8.79633 11.6511 8.88799 12.0216C8.96906 12.3493 9.09238 12.5968 9.13732 12.6858C9.20472 12.8193 9.35644 13.0814 9.36156 13.0905L14.1592 10.4013C14.113 10.3188 14.0682 10.2411 14.0475 10.205C14.0163 10.1504 14.0275 10.1683 14.0468 10.2066C14.0574 10.2275 14.1575 10.4198 14.227 10.7008C14.3071 11.0245 14.3751 11.5801 14.1519 12.2144C13.9376 12.8232 13.5646 13.1875 13.3768 13.3473C13.2802 13.4296 13.199 13.4859 13.1563 13.5145C13.1125 13.5438 13.081 13.5626 13.0763 13.5653C13.0223 13.5975 13.2642 13.4592 13.4403 13.3441L10.4303 8.74081ZM9.36191 13.0912C9.46156 13.2688 9.57183 13.4322 9.6873 13.5806L14.027 10.2017C14.0712 10.2584 14.116 10.3242 14.1589 10.4006L9.36191 13.0912ZM9.68735 13.5806C10.6909 14.8695 12.2651 15.5493 14.0022 15.1835L12.8691 9.80153C13.0116 9.77152 13.2646 9.7613 13.5499 9.87141C13.8264 9.9781 13.9768 10.1372 14.027 10.2016L9.68735 13.5806ZM14.002 15.1836C15.6608 14.8344 16.9174 13.6241 17.2954 11.9359L11.9283 10.7342C11.9615 10.5859 12.0581 10.3507 12.2786 10.1345C12.4978 9.91963 12.7298 9.83084 12.8692 9.8015L14.002 15.1836ZM17.2954 11.936C17.6384 10.4046 17.2107 8.73709 15.7859 7.61229L12.378 11.9293C12.2453 11.8245 12.0709 11.6223 11.9741 11.3255C11.8818 11.0422 11.9086 10.8222 11.9284 10.734L17.2954 11.936ZM8.2289 11.1248C8.24646 11.1523 8.27175 11.1951 8.32938 11.2978C8.37587 11.3806 8.46295 11.5381 8.55621 11.6917L13.2571 8.83655C13.226 8.78533 13.1969 8.73293 13.126 8.60668C13.0664 8.5003 12.9732 8.33476 12.8617 8.16059L8.2289 11.1248ZM8.55613 11.6916C8.52491 11.6402 8.0212 10.869 8.25858 9.79704C8.51235 8.65107 9.37022 8.16672 9.50275 8.09221L12.198 12.8866C12.4419 12.7495 13.3589 12.2036 13.6285 10.9862C13.8817 9.84275 13.3504 8.9903 13.2571 8.83667L8.55613 11.6916ZM9.50348 8.0918C9.30702 8.20217 9.11536 8.31537 8.95728 8.40835C8.78997 8.50675 8.65255 8.5871 8.51955 8.66074L11.1838 13.4724C11.3871 13.3598 11.5814 13.2457 11.7456 13.1492C11.919 13.0472 12.0585 12.9649 12.1973 12.887L9.50348 8.0918ZM8.52031 8.66031C8.87861 8.46208 9.2139 8.38765 9.47099 8.3626C9.61672 8.34841 9.8077 8.34312 10.0306 8.37198C10.241 8.39922 10.582 8.46995 10.9563 8.67653L8.29862 13.4918C9.03392 13.8976 9.73011 13.8634 10.0042 13.8367C10.3441 13.8036 10.7635 13.7049 11.183 13.4728L8.52031 8.66031ZM10.9557 8.67621C10.6106 8.48586 10.2906 8.29284 9.85052 8.03532L7.07274 12.7823C7.437 12.9955 7.87271 13.2569 8.29921 13.4921L10.9557 8.67621ZM10.8522 11.7681C11.0622 11.3988 11.1115 11.295 11.218 11.1259L6.56483 8.19369C6.3721 8.49955 6.15931 8.89432 6.07107 9.04951L10.8522 11.7681ZM11.218 11.1259C11.3027 10.9915 11.8427 10.1772 11.6751 9.05929C11.4898 7.82397 10.6206 7.19842 10.345 7.01528L7.30048 11.5957C7.19136 11.5232 6.40437 10.9987 6.23586 9.87483C6.15686 9.34791 6.25518 8.91615 6.34797 8.65013C6.43413 8.40309 6.53677 8.23822 6.56485 8.19365L11.218 11.1259ZM10.3449 7.01521C10.5485 7.15048 10.7281 7.3723 10.8184 7.64291C10.9046 7.90122 10.8773 8.10211 10.8519 8.1937L5.55107 6.72711C5.07094 8.46248 5.58177 10.4535 7.30058 11.5958L10.3449 7.01521ZM10.8519 8.19379C10.7434 8.58601 10.5333 8.79328 10.4171 8.88344C10.2953 8.97785 10.0887 9.09115 9.77522 9.10944L9.45502 3.61877C7.74095 3.71873 6.0478 4.93194 5.55109 6.72702L10.8519 8.19379ZM9.77518 9.10944C9.30072 9.1371 8.8618 8.86523 8.67627 8.42387L13.7465 6.29252C13.0276 4.58232 11.3049 3.51092 9.45507 3.61876L9.77518 9.10944ZM8.67628 8.4239C8.45754 7.90357 8.6381 7.32777 9.08849 7.02489L12.1577 11.5889C13.8824 10.4291 14.5493 8.20226 13.7465 6.29249L8.67628 8.4239ZM9.08862 7.02481C8.89343 7.15605 8.08555 7.70322 7.81838 8.81254C7.53619 9.98422 8.06388 10.8669 8.22896 11.1249L12.8617 8.16049C12.9308 8.26857 13.4223 9.03385 13.1655 10.1003C12.9237 11.1045 12.2026 11.5587 12.1576 11.589L9.08862 7.02481Z" fill="#2F303B" mask="url(#path-3-inside-1_5401_228)"/>
</g>
</g>
<defs>
<linearGradient id="paint0_linear_5401_228" x1="2.56625" y1="3.29954" x2="17.2638" y2="17.5305" gradientUnits="userSpaceOnUse">
<stop stop-color="#4C4D5F"/>
<stop offset="1" stop-color="#3E4050"/>
</linearGradient>
<linearGradient id="paint1_linear_5401_228" x1="20.5228" y1="19.4523" x2="1.48029" y2="7.08448" gradientUnits="userSpaceOnUse">
<stop offset="0.63257" stop-color="#515368"/>
<stop offset="0.826938" stop-color="#3A3C4C"/>
</linearGradient>
</defs>
</svg>
