<svg width="24" height="24" viewBox="0 0 24 24" fill="none" xmlns="http://www.w3.org/2000/svg">
<path d="M2.19407 13.1644C2.09248 12.5549 2.56252 12 3.18046 12H8.81954C9.43748 12 9.90752 12.5549 9.80593 13.1644L8.80593 19.1644C8.72557 19.6466 8.30838 20 7.81954 20H4.18046C3.69162 20 3.27443 19.6466 3.19407 19.1644L2.19407 13.1644Z" fill="url(#paint0_linear_3264_22587)"/>
<circle cx="6" cy="9" r="2" fill="#259A55"/>
<path d="M15.1941 13.1644C15.0925 12.5549 15.5625 12 16.1805 12H21.8195C22.4375 12 22.9075 12.5549 22.8059 13.1644L21.8059 19.1644C21.7256 19.6466 21.3084 20 20.8195 20H17.1805C16.6916 20 16.2744 19.6466 16.1941 19.1644L15.1941 13.1644Z" fill="url(#paint1_linear_3264_22587)"/>
<circle cx="19" cy="9" r="2" fill="#259A55"/>
<path d="M6.19407 11.1644C6.09248 10.5549 6.56252 10 7.18046 10H16.8195C17.4375 10 17.9075 10.5549 17.8059 11.1644L16.1393 21.1644C16.0589 21.6466 15.6417 22 15.1529 22H8.84713C8.35829 22 7.9411 21.6466 7.86073 21.1644L6.19407 11.1644Z" fill="url(#paint2_linear_3264_22587)"/>
<circle cx="12" cy="6" r="3" fill="#5EE594"/>
<defs>
<linearGradient id="paint0_linear_3264_22587" x1="11.5" y1="20.7" x2="1.8" y2="14.4" gradientUnits="userSpaceOnUse">
<stop stop-color="#62EA99"/>
<stop offset="0.826938" stop-color="#229551"/>
</linearGradient>
<linearGradient id="paint1_linear_3264_22587" x1="24.5" y1="20.7" x2="14.8" y2="14.4" gradientUnits="userSpaceOnUse">
<stop stop-color="#62EA99"/>
<stop offset="0.826938" stop-color="#229551"/>
</linearGradient>
<linearGradient id="paint2_linear_3264_22587" x1="7.58321" y1="11.7271" x2="16.6507" y2="20.5067" gradientUnits="userSpaceOnUse">
<stop stop-color="#62EA99"/>
<stop offset="1" stop-color="#30B264"/>
</linearGradient>
</defs>
</svg>
