<svg width="24" height="25" viewBox="0 0 24 25" fill="none" xmlns="http://www.w3.org/2000/svg">
<g id="Icon_leaderboard/Initial">
<rect id="Rectangle 161124066" x="9" y="8.5" width="6" height="14" rx="1" fill="url(#paint0_linear_4_194)"/>
<rect id="Rectangle 161124067" x="2" y="11.5" width="6" height="11" rx="1" fill="url(#paint1_linear_4_194)"/>
<rect id="Rectangle 161124068" x="16" y="13.5" width="6" height="9" rx="1" fill="url(#paint2_linear_4_194)"/>
<path id="Star 7" d="M11.5245 2.96352C11.6741 2.50287 12.3259 2.50287 12.4755 2.96353L12.7858 3.91844C12.8527 4.12445 13.0447 4.26393 13.2613 4.26393H14.2654C14.7497 4.26393 14.9511 4.88374 14.5593 5.16844L13.747 5.75861C13.5717 5.88593 13.4984 6.11162 13.5653 6.31763L13.8756 7.27254C14.0253 7.7332 13.498 8.11626 13.1062 7.83156L12.2939 7.24139C12.1186 7.11407 11.8814 7.11407 11.7061 7.24139L10.8938 7.83156C10.502 8.11626 9.97471 7.7332 10.1244 7.27254L10.4347 6.31763C10.5016 6.11162 10.4283 5.88593 10.253 5.75861L9.44072 5.16844C9.04887 4.88374 9.25025 4.26393 9.73462 4.26393H10.7387C10.9553 4.26393 11.1473 4.12445 11.2142 3.91844L11.5245 2.96352Z" fill="#4C4D5F"/>
</g>
<defs>
<linearGradient id="paint0_linear_4_194" x1="9.7916" y1="10.515" x2="17.2854" y2="13.6247" gradientUnits="userSpaceOnUse">
<stop stop-color="#4C4D5F"/>
<stop offset="1" stop-color="#3E4050"/>
</linearGradient>
<linearGradient id="paint1_linear_4_194" x1="9.5" y1="22.5" x2="0.434744" y2="20.0617" gradientUnits="userSpaceOnUse">
<stop stop-color="#3A3C4C"/>
<stop offset="0.788415" stop-color="#515368"/>
</linearGradient>
<linearGradient id="paint2_linear_4_194" x1="23.125" y1="23.2875" x2="14.4143" y2="19.5158" gradientUnits="userSpaceOnUse">
<stop stop-color="#515368"/>
<stop offset="0.826938" stop-color="#3A3C4C"/>
</linearGradient>
</defs>
</svg>
